<!DOCTYPE svg PUBLIC "-//W3C//DTD SVG 1.1//EN" "http://www.w3.org/Graphics/SVG/1.1/DTD/svg11.dtd">
<!-- Uploaded to: SVG Repo, www.svgrepo.com, Transformed by: SVG Repo Mixer Tools -->
<svg height="800px" width="800px" version="1.1" id="_x32_" xmlns="http://www.w3.org/2000/svg" xmlns:xlink="http://www.w3.org/1999/xlink" viewBox="0 0 512 512" xml:space="preserve" fill="#5e5c64" stroke="#5e5c64">
<g id="SVGRepo_bgCarrier" stroke-width="0"/>
<g id="SVGRepo_tracerCarrier" stroke-linecap="round" stroke-linejoin="round"/>
<g id="SVGRepo_iconCarrier"> <style type="text/css"> .st0{fill:#77767b;} </style> <g> <path class="st0" d="M394.907,363.894c-0.07-0.028-0.14-0.056-0.21-0.084c-9.137-3.446-18.077-5.976-25.948-8.13 c-5.243-1.433-9.961-2.698-13.932-3.908c-4.565-23.544-0.594-62.145,18.399-119.131C385.638,195.369,445.692,0,256,0 C66.308,0,130.55,194.222,138.784,232.641c10.199,47.592,25.193,96.734,19.014,118.425c-9.298,3.236-19.839,7.459-30.842,13.925 c-38.182-8.172-96.643,29.269-84.808,100.291c1.216,8.487,19.098,15.68,44.578,21.489c1.95,0.713,3.873,1.44,5.984,2.153 C128.257,500.948,186.808,511.979,256,512c57.958-0.007,106.877-7.529,141.794-16.973c8.752-2.37,16.609-4.858,23.55-7.396 c27.55-5.949,47.235-13.429,48.507-22.348C480.707,400.146,432.438,363.265,394.907,363.894z M358.899,443.808 c-5.369,0-52.792-16.63-102.899,3.055c-50.107-19.685-97.53-3.055-102.899-3.055c-4.271,0-8.507-46.451-14.589-67.22 c15.463-8.424,30.031-12.345,42.257-16.624c8.032-2.866,14.75-5.892,20.042-10.932c2.622-2.517,4.789-5.593,6.173-9.067 c1.391-3.474,2.013-7.263,2.006-11.212c0-8.354,0-18.798,0-33.107v-3.027l-2.02-2.243c-10.737-11.961-25.278-27.829-30.318-56.05 l-0.797-4.509l-4.306-1.538c-2.741-0.979-4.83-1.979-6.655-3.244c-2.691-1.901-5.131-4.494-7.984-9.814 c-2.816-5.284-5.802-13.177-9.066-24.634c-1.433-5.012-1.943-8.905-1.943-11.799c0.007-3.356,0.65-5.327,1.308-6.564 c0.992-1.804,2.209-2.572,3.761-3.194c1.062-0.405,2.188-0.559,2.831-0.615l7.626,1.622c2.845,4.53,4.201,8.92,4.201,8.92 s-5.369-16.106,8.948-37.58c13.953-20.929,73.812-2.796,111.63-56.559c36.958,43.599,37.79,14.946,51.219,35.084 c14.316,21.475,8.948,59.055,8.948,59.055s1.566-5.005,4.823-9.842l6.62-0.706c0.497-0.014,3.007,0.231,4.663,1.335 c0.902,0.573,1.636,1.244,2.307,2.482c0.657,1.238,1.3,3.202,1.314,6.564c0,2.894-0.518,6.781-1.944,11.799 c-4.341,15.295-8.235,24.187-11.807,29.122c-1.789,2.488-3.425,4.054-5.243,5.326c-1.824,1.266-3.914,2.265-6.654,3.244 l-4.306,1.538l-0.796,4.509c-5.04,28.22-19.581,44.089-30.318,56.05l-2.02,2.243v3.027c0,14.316,0,24.753,0,33.107 c-0.014,5.194,2.006,9.856,4.774,13.582c4.187,5.62,10.003,9.78,16.336,13.408c6.347,3.607,13.29,6.571,19.818,9.018 c7.801,2.894,17.742,5.173,28.611,8.346c0.616,0.182,1.245,0.378,1.86,0.559C367.826,392.583,363.38,443.808,358.899,443.808z"/> </g> </g>
</svg>