<!DOCTYPE svg PUBLIC "-//W3C//DTD SVG 1.1//EN" "http://www.w3.org/Graphics/SVG/1.1/DTD/svg11.dtd">
<!-- Uploaded to: SVG Repo, www.svgrepo.com, Transformed by: SVG Repo Mixer Tools -->
<svg fill="#101010" width="800px" height="800px" viewBox="0 0 32 32" version="1.1" xmlns="http://www.w3.org/2000/svg">
<g id="SVGRepo_bgCarrier" stroke-width="0"/>
<g id="SVGRepo_tracerCarrier" stroke-linecap="round" stroke-linejoin="round"/>
<g id="SVGRepo_iconCarrier"> <title>graduation-cap</title> <path d="M30.441 7.552l-14-5.279c-0.131-0.051-0.283-0.081-0.441-0.081s-0.31 0.030-0.45 0.083l0.009-0.003-14 5.279c-0.477 0.184-0.809 0.638-0.809 1.17s0.332 0.986 0.8 1.167l0.009 0.003 1.191 0.449v12.657l-1.517 2.275c-0.132 0.195-0.21 0.435-0.21 0.693s0.079 0.499 0.213 0.698l-0.003-0.004 1.727 2.59c0.227 0.337 0.608 0.557 1.040 0.557s0.813-0.219 1.037-0.552l0.003-0.004 1.727-2.59c0.132-0.195 0.21-0.435 0.21-0.693s-0.079-0.499-0.213-0.698l0.003 0.004-1.517-2.275v-11.715l2.349 0.886-1.609 9.714c-0.011 0.062-0.017 0.132-0.017 0.205 0 0.532 0.333 0.987 0.801 1.167l0.009 0.003c2.724 1.076 5.879 1.705 9.18 1.717h0.005c3.327-0.016 6.503-0.644 9.427-1.776l-0.18 0.061c0.479-0.181 0.814-0.636 0.814-1.169 0-0.064-0.005-0.127-0.014-0.189l0.001 0.007-1.42-9.812 5.848-2.205c0.477-0.184 0.809-0.638 0.809-1.17s-0.332-0.986-0.8-1.167l-0.009-0.003zM4 26.303l-0.225-0.336 0.225-0.336 0.225 0.336zM23.393 21.248c-2.207 0.774-4.751 1.222-7.4 1.222-2.636 0-5.169-0.443-7.527-1.259l0.162 0.049 1.357-8.192 5.574 2.102c0.131 0.051 0.283 0.080 0.441 0.080s0.31-0.029 0.45-0.083l-0.009 0.003 5.758-2.171zM16 12.664l-10.457-3.942 10.457-3.943 10.457 3.943z"/> </g>
</svg>