<!DOCTYPE svg PUBLIC "-//W3C//DTD SVG 1.1//EN" "http://www.w3.org/Graphics/SVG/1.1/DTD/svg11.dtd">
<!-- Uploaded to: SVG Repo, www.svgrepo.com, Transformed by: SVG Repo Mixer Tools -->
<svg fill="#160A36" height="800px" width="800px" version="1.1" id="Layer_1" xmlns="http://www.w3.org/2000/svg" xmlns:xlink="http://www.w3.org/1999/xlink" viewBox="0 0 512 512" xml:space="preserve">
<g id="SVGRepo_bgCarrier" stroke-width="0"/>
<g id="SVGRepo_tracerCarrier" stroke-linecap="round" stroke-linejoin="round"/>
<g id="SVGRepo_iconCarrier"> <g> <g> <path d="M491.841,156.427c-19.471-45.946-51.937-85.013-92.786-112.637C358.217,16.166,308.893-0.007,256,0 c-35.254-0.002-68.946,7.18-99.571,20.158C110.484,39.63,71.416,72.093,43.791,112.943C16.167,153.779-0.007,203.104,0,256 c-0.002,35.255,7.181,68.948,20.159,99.573c19.471,45.946,51.937,85.013,92.786,112.637C153.783,495.834,203.107,512.007,256,512 c35.253,0.002,68.946-7.18,99.571-20.158c45.946-19.471,85.013-51.935,112.638-92.785C495.834,358.22,512.007,308.894,512,256 C512.002,220.744,504.819,187.052,491.841,156.427z M460.413,342.257c-16.851,39.781-45.045,73.723-80.476,97.676 c-35.444,23.953-78.02,37.926-123.935,37.933c-30.619-0.002-59.729-6.218-86.255-17.454 c-39.781-16.851-73.724-45.044-97.677-80.475C48.113,344.495,34.14,301.917,34.133,256c0.002-30.62,6.219-59.731,17.454-86.257 c16.851-39.781,45.045-73.724,80.476-97.676C167.506,48.113,210.084,34.14,256,34.133c30.619,0.002,59.729,6.218,86.255,17.454 c39.781,16.85,73.724,45.044,97.677,80.475c23.953,35.443,37.927,78.02,37.934,123.939 C477.864,286.62,471.648,315.731,460.413,342.257z"/> </g> </g> <g> <g> <path d="M365.428,186.42L226.267,94.11c-7.686-5.098-18.049-3-23.147,4.685c-5.098,7.686-3,18.049,4.685,23.147l118.181,78.393 l-118.181,78.393c-7.686,5.098-9.784,15.461-4.685,23.147c5.098,7.685,15.461,9.784,23.147,4.685l139.161-92.309 c4.652-3.086,7.468-8.333,7.468-13.916S370.081,189.506,365.428,186.42z"/> </g> </g> <g> <g> <path d="M356.196,339.496H155.804c-9.222,0-16.699,7.477-16.699,16.699c0,9.222,7.477,16.699,16.699,16.699h200.391 c9.222,0,16.699-7.477,16.699-16.699C372.895,346.973,365.418,339.496,356.196,339.496z"/> </g> </g> </g>
</svg>